<?xml version="1.0"?>
<svg xmlns="http://www.w3.org/2000/svg" viewBox="0 0 64 64" width="512px" height="512px"><g><g id="Journey-2" data-name="Journey"><path d="M11,48a5,5,0,1,1,5-5A5.006,5.006,0,0,1,11,48Zm0-8a3,3,0,1,0,3,3A3,3,0,0,0,11,40Z" data-original="#000000" class="active-path" data-old_color="#000000" fill="#FFFFFF"/><path d="M14.389,54.273C16.816,50.967,20,46.053,20,43A9,9,0,0,0,2,43c0,3.053,3.184,7.967,5.611,11.273C4.734,54.747,2,55.91,2,58c0,2.626,4.527,4,9,4s9-1.374,9-4C20,55.91,17.266,54.747,14.389,54.273ZM11,36a7.008,7.008,0,0,1,7,7c0,2.982-4.511,9.28-7,12.414C8.511,52.28,4,45.982,4,43A7.008,7.008,0,0,1,11,36Zm0,24c-4.547,0-7-1.419-7-2,0-.42,1.514-1.541,5-1.886.6.768,1.056,1.321,1.228,1.527a1,1,0,0,0,1.536,0c.172-.206.627-.759,1.228-1.527,3.49.345,5,1.466,5,1.886C18,58.581,15.547,60,11,60Z" data-original="#000000" class="active-path" data-old_color="#000000" fill="#FFFFFF"/><path d="M53,16a5,5,0,1,1,5-5A5.006,5.006,0,0,1,53,16Zm0-8a3,3,0,1,0,3,3A3,3,0,0,0,53,8Z" data-original="#000000" class="active-path" data-old_color="#000000" fill="#FFFFFF"/><path d="M56.389,22.273C58.816,18.967,62,14.053,62,11a9,9,0,0,0-18,0c0,3.053,3.184,7.967,5.611,11.273C46.734,22.748,44,23.911,44,26c0,2.626,4.527,4,9,4s9-1.374,9-4C62,23.911,59.266,22.748,56.389,22.273ZM53,4a7.008,7.008,0,0,1,7,7c0,2.982-4.512,9.28-7,12.414C50.512,20.28,46,13.982,46,11A7.008,7.008,0,0,1,53,4Zm0,24c-4.547,0-7-1.419-7-2,0-.42,1.514-1.541,5-1.886.6.768,1.056,1.321,1.228,1.527a1,1,0,0,0,1.536,0c.172-.206.627-.759,1.228-1.527,3.49.345,5,1.466,5,1.886C60,26.581,57.547,28,53,28Z" data-original="#000000" class="active-path" data-old_color="#000000" fill="#FFFFFF"/><path d="M51,56H22a1,1,0,0,1,0-2H51a9,9,0,0,0,0-18H25a11,11,0,0,1,0-22H42a1,1,0,0,1,0,2H25a9,9,0,0,0,0,18H51a11,11,0,0,1,0,22Z" data-original="#000000" class="active-path" data-old_color="#000000" fill="#FFFFFF"/></g></g> </svg>
